<?xml version="1.0" standalone="no"?>
<!DOCTYPE svg PUBLIC "-//W3C//DTD SVG 20010904//EN"
 "http://www.w3.org/TR/2001/REC-SVG-20010904/DTD/svg10.dtd">
<svg version="1.0" xmlns="http://www.w3.org/2000/svg"
 width="1080.000000pt" height="1920.000000pt" viewBox="0 0 1080.000000 1920.000000"
 preserveAspectRatio="xMidYMid meet">

<g transform="translate(0.000000,1920.000000) scale(0.100000,-0.100000)"
fill="#000000" stroke="none">
<path d="M0 9605 l0 -9595 5400 0 5400 0 0 9595 0 9595 -5400 0 -5400 0 0
-9595z m5670 2561 c135 -31 288 -67 340 -80 l95 -24 -705 0 c-388 0 -700 1
-695 4 8 3 297 71 605 142 47 11 92 18 100 16 8 -1 125 -28 260 -58z m716
-173 c-3 -16 -15 -109 -26 -208 -12 -99 -25 -189 -30 -201 -7 -18 -22 -22
-126 -32 -66 -7 -273 -28 -462 -48 l-343 -36 -302 31 c-166 18 -374 39 -462
48 -88 9 -162 18 -163 19 -3 2 -59 413 -62 452 0 1 446 2 991 2 l991 0 -6 -27z
m-2012 -35 c9 -40 48 -369 44 -372 -1 -2 -88 -24 -193 -50 -104 -26 -303 -77
-442 -113 l-252 -67 -6 -45 c-16 -119 32 -633 92 -991 19 -118 39 -234 43
-257 5 -30 3 -40 -5 -37 -14 6 -41 -84 -51 -166 -9 -83 26 -204 80 -275 14
-19 16 -18 41 35 27 58 27 45 0 -30 -9 -24 -19 -66 -22 -92 l-6 -48 -51 0
c-49 0 -53 2 -103 57 -29 31 -55 55 -58 51 -3 -3 1 -13 10 -21 8 -9 15 -19 15
-22 0 -4 9 -20 21 -36 l20 -29 -70 0 c-66 0 -71 -1 -71 -22 0 -41 -10 -11 -40
123 -156 681 -260 1466 -260 1965 l0 131 223 61 c122 34 341 93 487 131 146
39 324 86 395 105 72 19 136 35 142 35 7 1 15 -9 17 -21z m2360 -54 c160 -42
438 -116 619 -165 180 -49 329 -89 332 -89 8 0 5 -237 -5 -410 -34 -544 -115
-1087 -256 -1720 -25 -110 -30 -122 -38 -97 -9 26 -13 27 -74 27 l-63 0 20 29
c12 16 21 32 21 36 0 3 7 13 15 22 9 8 13 18 10 21 -3 3 -30 -20 -59 -52 -52
-54 -56 -57 -97 -54 -43 3 -44 4 -51 47 -4 23 -10 52 -14 63 -4 13 -2 18 5 14
17 -11 69 92 87 172 13 60 14 83 4 140 -16 97 -32 144 -45 138 -13 -5 -14 -9
14 149 34 190 70 434 85 585 21 203 37 496 30 551 l-6 46 -177 46 c-97 26
-295 77 -441 114 -146 36 -267 67 -269 69 -3 3 38 361 44 382 3 6 8 12 11 12
4 0 138 -34 298 -76z m-2224 -387 c30 -4 125 -13 210 -22 85 -9 169 -17 185
-19 17 -2 90 -10 162 -17 122 -12 131 -14 118 -29 -8 -9 -15 -26 -15 -39 0
-26 -27 -39 -49 -23 -29 21 -61 35 -67 30 -3 -3 2 -23 11 -44 19 -44 36 -164
25 -179 -4 -5 -15 -35 -25 -65 -10 -30 -31 -70 -46 -88 -37 -42 -45 -74 -30
-124 12 -37 11 -42 -12 -67 -44 -47 -62 -110 -37 -126 14 -8 13 -25 -2 -25 -6
0 -19 -6 -27 -13 -9 -8 -37 -20 -63 -27 -73 -19 -128 -88 -128 -161 0 -42 -84
-268 -125 -336 -19 -32 -40 -84 -46 -116 l-12 -58 -23 56 -22 56 19 44 c21 48
24 85 17 280 -2 91 0 140 9 162 26 66 7 157 -46 217 -40 46 -165 90 -251 89
-81 0 -141 -25 -206 -85 -61 -55 -78 -97 -104 -243 -24 -138 -33 -169 -69
-245 l-26 -54 -6 39 -6 40 -2 -46 c-1 -34 -11 -63 -36 -105 -36 -59 -54 -109
-56 -154 -1 -36 -14 20 -54 250 -69 389 -115 881 -84 901 11 7 11 9 -3 9 -15
0 -18 10 -18 65 0 62 1 66 27 76 75 28 830 216 843 209 8 -4 40 -10 70 -13z
m2095 -48 c5 -6 5 -9 -3 -9 -7 0 -12 -7 -12 -15 0 -12 -4 -13 -19 -5 -29 15
-41 12 -41 -10 0 -16 -7 -20 -31 -20 -29 0 -31 -2 -27 -30 4 -28 3 -30 -30
-30 -31 0 -34 -2 -28 -25 5 -18 2 -25 -9 -25 -12 0 -45 -47 -45 -65 0 -3 18
-5 40 -5 42 0 50 -11 25 -36 -21 -22 -19 -44 5 -44 25 0 26 -16 3 -29 -16 -9
-17 -11 -1 -28 19 -21 10 -47 -14 -38 -24 10 -70 -13 -66 -33 2 -9 -9 -29 -25
-45 -31 -31 -30 -62 4 -72 22 -7 24 -16 7 -33 -8 -8 -8 -15 1 -26 10 -12 8
-17 -8 -26 -12 -6 -28 -24 -36 -40 -14 -27 -14 -31 0 -36 10 -4 13 -14 9 -30
-6 -21 -3 -24 25 -24 25 0 31 -4 31 -21 0 -17 4 -20 23 -15 50 12 56 -108 9
-201 -34 -67 -36 -107 -9 -166 32 -70 93 -154 118 -162 27 -9 24 -32 -8 -52
-16 -9 -35 -23 -43 -30 -8 -7 -30 -25 -48 -39 -18 -15 -47 -54 -64 -88 -17
-33 -48 -88 -69 -122 -40 -62 -47 -92 -29 -110 6 -6 8 -19 4 -28 -6 -15 -15
-17 -52 -12 -25 3 -66 6 -93 6 l-48 0 -34 73 c-19 39 -51 110 -72 157 -21 47
-57 128 -80 180 -65 143 -105 267 -115 348 -9 86 -36 127 -112 174 -36 23 -47
35 -42 47 15 37 14 49 -5 93 -19 45 -19 47 0 63 27 26 33 73 14 127 -21 62
-36 226 -25 275 5 21 24 66 42 100 18 34 30 65 26 68 -3 4 -26 -5 -50 -19 -51
-30 -68 -22 -68 30 0 42 -16 51 -44 25 -30 -28 -52 -27 -72 4 -9 14 -15 27
-13 28 2 2 213 25 469 51 256 26 474 51 485 55 21 8 232 -42 250 -60z m-1310
-35 c14 -6 14 -8 -1 -25 -9 -11 -24 -19 -32 -19 -17 0 -52 28 -52 42 0 9 61
11 85 2z m99 -36 c20 -39 20 -44 1 -28 -24 20 -18 5 7 -16 12 -10 18 -13 14
-7 -5 9 1 11 21 7 20 -4 34 1 49 15 l22 20 7 -42 c5 -23 8 -46 9 -52 1 -5 12
-11 26 -12 l25 -2 -25 8 -25 9 26 1 c14 1 34 8 45 16 10 8 22 15 25 15 8 0
-53 -124 -63 -128 -4 -2 -4 -11 -1 -20 4 -14 3 -14 -5 -2 -6 8 -9 18 -6 22 5
8 -54 48 -71 48 -5 -1 2 -8 18 -16 46 -25 30 -33 -25 -12 -64 25 -224 36 -282
20 -47 -13 -68 -4 -35 14 16 9 19 13 9 14 -22 0 -40 -19 -33 -36 3 -8 1 -14
-5 -14 -7 0 -20 60 -24 118 -1 6 -5 12 -10 12 -4 0 -8 5 -8 11 0 8 5 8 15 -1
8 -7 15 -19 15 -26 0 -9 10 -14 28 -13 l27 1 -25 8 -25 8 27 1 c30 1 48 25 48
63 0 23 0 23 25 -5 33 -35 61 -34 94 3 35 39 65 39 85 -2z m1326 -168 c-6 -12
-9 -35 -7 -53 4 -31 4 -31 5 5 2 43 37 74 71 63 44 -14 33 -75 -20 -114 -24
-18 -32 -19 -48 -9 -39 24 -53 85 -25 112 22 23 37 20 24 -4z m-1277 -13 c44
-19 54 -34 62 -92 l6 -50 -18 27 c-9 15 -31 34 -48 42 -27 13 -32 13 -48 -2
-18 -16 -18 -17 19 -23 81 -14 112 -98 71 -191 -24 -55 -50 -86 -40 -50 6 25
-14 38 -72 46 -27 3 -52 11 -54 17 -2 8 -5 8 -11 0 -9 -16 -40 -3 -41 18 -1
14 -2 14 -6 -1 -3 -13 -15 -18 -39 -18 -22 0 -37 -6 -40 -15 -9 -24 -21 -18
-33 16 -16 46 -14 88 9 162 16 50 30 73 62 102 l41 38 74 -7 c40 -3 88 -12
106 -19z m-332 -260 c-16 -16 -26 20 -10 40 13 15 14 14 17 -7 2 -12 -1 -27
-7 -33z m139 -87 c35 -38 93 -41 134 -9 15 12 30 19 33 15 9 -8 -16 -62 -38
-82 -23 -21 -38 -10 -22 15 11 17 9 18 -15 12 -15 -4 -39 -5 -53 -1 -21 6 -25
4 -25 -13 1 -35 -23 -31 -39 7 -15 35 -20 86 -9 86 3 0 19 -13 34 -30z m104 9
l31 -1 -29 -8 c-32 -10 -83 -3 -93 13 -4 7 5 8 27 4 18 -4 47 -7 64 -8z m-935
-135 c18 -14 36 -35 42 -46 9 -17 8 -18 -10 -6 -15 9 -26 10 -38 2 -27 -17
-27 -32 0 -27 41 8 67 -13 67 -53 l0 -36 -18 22 -19 23 -21 -21 c-12 -12 -22
-28 -22 -34 0 -7 7 -2 16 10 8 12 20 22 26 22 7 0 7 -4 -1 -14 -12 -15 -5 -46
11 -46 5 0 6 -4 3 -10 -3 -5 -4 -10 0 -10 3 0 10 12 16 28 l11 27 16 -35 c35
-80 11 -173 -67 -257 -33 -37 -44 -43 -78 -43 -52 0 -152 50 -193 97 -23 26
-34 33 -43 24 -31 -31 -85 13 -94 76 -9 67 50 85 81 25 14 -26 14 -26 22 36 4
40 14 71 26 85 11 12 16 15 12 7 -4 -8 6 -3 22 11 37 34 67 49 95 49 17 0 19
3 9 14 -6 8 -21 16 -32 18 -18 3 -16 8 20 46 48 52 92 57 141 16z m746 -37
c15 -23 28 -32 47 -32 18 1 24 -3 20 -14 -4 -10 -1 -12 9 -5 17 10 49 6 68 -9
11 -9 13 -9 8 -1 -4 7 3 14 18 16 30 6 31 2 8 -26 -13 -15 -10 -14 10 3 15 14
27 30 27 37 0 6 7 17 15 24 13 10 14 5 12 -41 -2 -42 1 -54 13 -54 8 0 15 -9
15 -20 0 -21 -37 -45 -72 -45 -16 0 -23 -6 -23 -20 0 -11 -4 -20 -9 -20 -5 0
-13 9 -16 20 -3 11 -11 20 -16 20 -6 0 -8 4 -5 9 4 5 -2 7 -11 5 -31 -8 -103
24 -159 72 -53 46 -54 47 -32 58 13 6 27 21 33 34 13 28 16 28 40 -11z m133
-181 c23 -24 -46 -10 -78 15 l-25 19 48 -14 c27 -8 52 -17 55 -20z m143 15
c-6 -10 -25 -24 -42 -30 -42 -14 -49 -14 -49 4 0 9 9 15 23 15 12 1 33 7 47
15 32 18 33 18 21 -4z m-474 -51 c66 -33 146 -69 178 -80 74 -26 182 -36 223
-22 24 8 33 7 42 -3 6 -8 21 -15 33 -17 22 -3 22 -6 21 -178 0 -115 2 -155 7
-115 4 33 7 113 8 178 1 116 1 117 25 117 13 0 27 -7 30 -16 10 -25 7 -242 -4
-331 -6 -45 -18 -108 -28 -140 -16 -51 -21 -58 -46 -61 -23 -3 -27 0 -22 15
14 48 25 111 25 143 -1 22 -6 7 -14 -40 -7 -41 -18 -87 -25 -102 -12 -26 -16
-27 -99 -30 -209 -7 -348 20 -382 76 -25 40 -24 54 6 127 13 34 26 82 29 108
2 25 2 37 -1 26 -2 -11 -11 -45 -20 -75 -16 -53 -17 -54 -24 -25 -7 28 -7 28
-7 -10 -1 -63 -30 -232 -58 -329 -39 -138 -140 -342 -116 -234 4 18 7 105 7
193 0 182 -10 217 -74 261 -52 35 -92 32 -130 -11 -17 -20 -31 -31 -31 -26 0
5 4 12 9 15 11 7 36 97 33 115 -2 7 0 11 5 8 4 -3 8 9 9 26 0 18 14 54 31 80
31 48 42 74 107 251 42 115 76 166 111 166 13 0 77 -27 142 -60z m1538 -1 c0
-28 -4 -35 -23 -37 -23 -3 -23 -3 -8 21 10 14 14 32 10 42 -5 13 -3 16 7 13 8
-3 14 -18 14 -39z m-1119 9 c20 6 32 6 28 1 -3 -6 5 -7 21 -3 52 13 87 -56 48
-98 -36 -40 -90 -4 -80 54 l5 33 -59 0 c-32 0 -63 5 -70 12 -9 9 -2 9 31 1 29
-8 52 -8 76 0z m1773 -5 c0 -10 -4 -36 -8 -58 -9 -40 -9 -39 -10 18 0 32 3 57
9 57 6 0 10 -8 9 -17z m-462 -5 c6 -7 13 -21 16 -30 8 -24 -34 -52 -63 -43
l-22 7 22 15 c15 11 20 23 17 39 -5 26 14 33 30 12z m-947 -163 c36 -128 77
-231 176 -441 19 -39 34 -73 34 -77 0 -4 15 -38 34 -77 19 -38 32 -70 30 -70
-2 0 -13 5 -23 11 -13 9 -27 9 -47 2 -32 -11 -314 2 -325 15 -4 4 -16 37 -29
75 l-22 67 20 43 c25 51 40 171 48 377 7 152 7 155 33 177 l26 21 11 -21 c7
-12 22 -58 34 -102z m1224 50 c3 -9 0 -15 -9 -15 -9 0 -12 6 -9 15 4 8 7 15 9
15 2 0 5 -7 9 -15z m18 -66 c6 -31 -4 -229 -18 -326 l-6 -41 -27 31 c-14 17
-47 52 -73 78 -25 26 -49 57 -53 69 -4 12 -18 26 -31 32 -52 24 -10 78 62 78
39 0 51 5 80 34 22 22 34 44 34 61 0 38 23 27 32 -16z m-424 -19 c44 -1 53 -3
39 -11 -31 -18 -95 -15 -115 5 -16 18 -16 19 1 12 10 -3 44 -6 75 -6z m-2378
-10 c0 -5 7 -10 15 -10 8 0 15 -5 15 -11 0 -5 4 -7 10 -4 5 3 8 0 5 -7 -6 -16
39 -68 58 -68 31 0 27 -85 -4 -93 -14 -4 -33 11 -74 56 -48 55 -55 67 -55 105
0 31 4 42 15 42 8 0 15 -4 15 -10z m-45 -40 c-7 -22 19 -63 82 -127 30 -31 43
-63 27 -63 -4 0 -50 27 -103 61 l-96 61 40 44 c44 47 60 55 50 24z m224 -60
l22 -40 -21 -36 c-32 -50 -45 -39 -43 37 1 35 2 67 2 72 2 18 19 4 40 -33z
m-540 -71 c-11 -27 -23 -73 -28 -102 l-9 -52 -1 47 c-1 31 8 67 23 103 31 69
41 72 15 4z m265 14 c109 -67 161 -103 146 -103 -22 0 -114 45 -164 80 -25 16
-52 30 -62 30 -13 0 -14 3 -4 15 16 20 13 21 84 -22z m2705 -16 c7 -21 21 -37
39 -44 25 -10 25 -11 5 -12 -13 -1 -75 -26 -139 -56 -65 -30 -119 -53 -122
-50 -8 8 27 42 105 102 44 34 73 63 73 74 0 31 28 21 39 -14z m-2379 4 c0 -18
-56 -81 -72 -81 -16 0 -8 17 22 45 17 16 30 35 30 42 0 7 5 13 10 13 6 0 10
-8 10 -19z m-317 -40 c45 -28 101 -55 124 -61 l41 -10 -15 -39 c-11 -28 -20
-38 -32 -34 -13 4 -13 2 2 -7 24 -15 21 -45 -5 -59 -23 -11 -23 -11 -1 -6 20
6 22 3 17 -32 -3 -26 -2 -32 4 -19 8 18 10 16 20 -14 7 -18 12 -42 12 -53 0
-11 3 -17 7 -14 3 4 -2 40 -12 80 -19 77 -16 149 9 182 12 17 15 16 31 -19 10
-20 20 -34 23 -32 3 3 -1 12 -7 20 -9 11 -10 20 -1 35 6 12 14 21 19 21 4 0
30 19 56 42 55 49 68 46 103 -22 42 -83 21 -170 -41 -170 -13 0 -31 -6 -41
-13 -23 -17 -13 -55 17 -67 19 -7 16 -9 -15 -9 l-38 -1 0 79 c0 63 -4 87 -21
116 -28 47 -34 40 -9 -10 14 -28 20 -59 20 -110 0 -67 -1 -69 -14 -43 -8 16
-18 33 -22 40 -4 6 -17 -23 -30 -68 -28 -94 -29 -103 -5 -49 l18 40 10 -55 9
-55 18 53 18 52 44 0 c47 0 49 -2 35 -46 -5 -16 -12 -41 -15 -56 -6 -25 -11
-28 -49 -28 -39 0 -46 -4 -102 -66 l-60 -66 -71 10 c-40 6 -93 19 -118 31
l-46 20 3 88 c3 49 11 104 20 126 9 20 13 37 9 37 -4 0 -16 -21 -26 -48 -11
-26 -23 -52 -28 -59 -14 -17 -63 -6 -125 28 -28 16 -53 25 -56 21 -2 -4 -3 -2
-1 4 1 6 -2 16 -8 22 -6 6 7 41 39 103 26 52 48 95 49 96 2 7 94 -30 94 -37 0
-5 -19 -2 -42 6 -25 8 -45 11 -51 5 -9 -9 1 -101 12 -101 3 1 26 19 50 40 50
46 49 63 -6 80 -21 7 -41 15 -45 19 -20 18 91 131 129 131 8 0 51 -22 96 -49z
m2463 12 c-3 -16 -9 -49 -12 -75 -4 -30 -12 -48 -20 -48 -16 0 -20 7 -28 51
-5 31 -2 42 20 68 32 39 48 40 40 4z m-2238 -40 c-2 -22 -9 -29 -30 -31 -25
-3 -28 0 -28 27 0 28 3 31 31 31 27 0 30 -3 27 -27z m2176 -88 c7 -17 5 -17
-13 4 -29 32 -36 67 -20 88 12 14 15 11 20 -28 3 -24 9 -53 13 -64z m384 56
c3 -8 0 -11 -6 -8 -13 9 -76 -12 -189 -61 -63 -27 -93 -36 -93 -27 0 7 17 20
38 28 20 9 73 32 117 52 81 36 125 41 133 16z m-415 -47 c29 -48 34 -83 16
-101 -6 -6 -19 -35 -29 -64 -13 -40 -23 -55 -41 -60 -24 -7 -24 -7 -1 -8 20
-1 22 -6 22 -51 0 -46 -2 -50 -24 -50 -26 0 -36 29 -36 104 0 58 10 86 29 87
14 0 14 1 0 7 -11 5 -16 24 -18 67 -4 86 -12 83 -13 -5 -1 -41 -1 -117 -2
-168 -1 -64 -5 -92 -13 -92 -38 0 -123 58 -123 84 0 5 20 41 44 80 24 39 54
91 66 116 24 49 68 100 84 100 6 0 23 -21 39 -46z m430 7 c-2 -6 0 -10 5 -10
21 4 33 -4 46 -30 16 -30 13 -37 -24 -55 -8 -4 -4 2 10 13 14 11 20 21 15 21
-6 0 -27 -14 -48 -31 l-37 -31 22 -17 c28 -22 112 -71 121 -71 4 0 7 12 7 27
0 24 6 19 39 -37 l39 -65 -32 -31 c-34 -32 -167 -90 -190 -81 -12 5 -56 122
-56 151 0 7 -6 13 -13 13 -10 0 -8 -15 8 -61 16 -45 22 -82 21 -141 l-1 -80
-115 -2 -115 -2 -63 74 -63 74 16 31 c9 18 14 34 11 38 -3 3 -11 -9 -17 -26
-6 -18 -15 -29 -20 -26 -5 3 1 23 13 45 l22 39 18 -47 c26 -69 34 -71 48 -11
19 87 20 87 38 81 16 -5 16 -5 1 8 -18 15 -34 126 -21 145 4 6 25 18 47 27 22
9 82 34 134 56 68 28 100 37 115 31 12 -4 20 -13 19 -19z m-3126 -68 c13 -10
18 -10 25 0 19 30 6 -15 -14 -50 l-23 -38 -17 70 c-20 86 -22 124 -3 70 8 -22
22 -45 32 -52z m20 25 c-3 -8 -6 -5 -6 6 -1 11 2 17 5 13 3 -3 4 -12 1 -19z
m131 3 c10 -6 9 -12 -5 -27 -10 -11 -13 -13 -8 -5 9 12 7 12 -13 2 -22 -12
-23 -11 -12 8 9 17 8 21 -5 21 -8 0 -15 5 -15 11 0 10 29 5 58 -10z m742 -13
c35 -24 73 -85 64 -100 -4 -5 -18 2 -33 16 -29 28 -41 32 -41 16 0 -5 6 -10
14 -10 8 0 24 -16 36 -36 19 -30 22 -45 17 -92 -3 -31 -10 -58 -14 -59 -4 -2
-6 -35 -5 -74 3 -56 1 -70 -10 -67 -7 3 -17 30 -22 66 -5 34 -12 62 -16 62 -4
0 -4 -17 1 -37 17 -76 9 -143 -17 -143 -10 0 -15 14 -16 48 l-2 47 -3 -48 c-3
-39 -7 -48 -21 -45 -21 4 -38 55 -48 137 -6 57 -5 61 12 55 23 -9 17 -1 -11
14 -19 9 -20 6 -23 -77 -4 -92 -13 -116 -32 -81 -27 51 -5 274 28 283 9 3 -8
3 -39 0 -51 -5 -58 -3 -68 16 -9 17 -9 22 1 25 7 1 43 12 80 24 84 28 93 27
123 -3 30 -29 34 -18 5 13 -12 12 -33 22 -48 22 l-27 1 28 24 c35 31 45 31 87
3z m1893 -52 c15 -39 18 -112 7 -171 -7 -36 -16 -67 -20 -70 -9 -5 -30 67 -32
110 -1 17 1 55 5 85 l6 55 -14 -50 c-7 -27 -14 -60 -14 -71 -1 -12 -13 -42
-27 -65 l-26 -44 7 62 c10 107 41 173 80 173 13 0 25 -6 28 -14z m400 -4 l-32
-17 34 -22 c31 -20 34 -21 38 -5 3 9 5 3 6 -15 l1 -32 -50 37 -50 37 33 17
c17 9 37 17 42 17 6 0 -4 -8 -22 -17z m-1903 -54 c98 -24 384 -19 456 9 17 6
17 5 4 -9 -9 -8 -33 -21 -55 -28 -22 -7 -50 -20 -63 -28 -18 -12 -25 -12 -37
-2 -9 7 -18 11 -20 8 -3 -3 6 -11 20 -18 21 -11 27 -11 43 3 10 9 42 21 72 28
30 6 61 18 68 27 10 14 12 12 10 -10 -1 -15 -5 -26 -8 -25 -3 1 -18 -7 -35
-16 l-30 -17 28 6 c22 5 26 3 21 -9 -8 -21 -31 -24 -209 -34 -167 -8 -176 -8
-258 8 -52 11 -87 29 -55 29 10 0 9 3 -1 9 -12 8 -13 15 -3 35 10 22 8 27 -11
42 l-22 16 25 -8 c14 -4 41 -11 60 -16z m-708 -80 c-2 -10 -8 -16 -12 -13 -12
7 -22 74 -14 87 10 15 33 -50 26 -74z m138 19 c0 -13 -7 -32 -15 -43 -16 -21
-18 -12 -9 35 8 36 24 42 24 8z m-586 -79 c-3 -5 -12 -35 -19 -66 -8 -32 -23
-79 -34 -105 l-20 -47 -61 0 c-54 0 -61 2 -56 18 2 9 8 33 11 52 4 19 23 76
42 126 l36 91 54 -30 c29 -16 50 -33 47 -39z m1151 24 c26 -4 28 -6 10 -13
-21 -8 -135 -12 -135 -5 0 3 4 16 10 31 l10 25 37 -16 c21 -9 51 -19 68 -22z
m-305 -72 c0 -47 -4 -80 -10 -80 -11 0 -14 101 -4 138 11 38 14 25 14 -58z
m-784 10 c12 0 15 -6 10 -24 -3 -14 -1 -36 5 -50 10 -22 8 -31 -15 -66 -23
-36 -31 -40 -66 -40 -22 0 -40 5 -40 10 0 6 14 58 32 116 31 100 33 103 45 79
8 -14 21 -25 29 -25z m1994 -20 c245 -17 450 -30 457 -30 6 0 47 -40 90 -90
l78 -90 377 0 376 0 11 -47 c6 -27 40 -185 76 -353 36 -168 93 -430 126 -583
33 -153 59 -281 56 -283 -4 -4 -221 -88 -583 -225 l-131 -49 -196 0 -195 0
-461 -320 c-253 -176 -463 -320 -466 -320 -3 0 7 18 21 40 32 48 17 37 502
374 l384 266 197 0 198 0 119 45 c65 25 184 71 264 101 80 31 177 67 215 81
39 14 73 29 78 33 7 6 -7 75 -94 475 -33 151 -81 374 -124 575 -15 69 -29 128
-31 132 -3 5 -169 8 -369 8 l-364 0 -81 94 -81 93 -97 6 c-53 3 -277 17 -497
32 l-400 28 -275 -17 c-151 -9 -281 -16 -287 -16 -18 0 -16 29 2 36 30 12 502
43 580 38 44 -2 280 -18 525 -34z m-1490 -45 c0 -22 -4 -25 -39 -25 -43 0 -56
-11 -162 -137 l-44 -52 -368 0 c-285 -1 -369 -4 -372 -13 -2 -7 -49 -227 -105
-488 -56 -261 -112 -522 -125 -579 -23 -101 -24 -121 -5 -121 5 0 157 -56 338
-125 l328 -125 197 0 197 0 263 -182 c144 -100 294 -205 334 -233 40 -27 117
-81 172 -119 61 -42 111 -85 126 -109 15 -21 25 -40 23 -42 -3 -3 -114 73
-675 463 l-262 182 -196 0 -196 0 -357 135 c-196 75 -357 137 -359 138 -2 2
69 335 176 827 17 74 44 204 62 288 l33 152 377 0 376 0 78 90 c76 88 77 89
128 93 29 2 53 4 55 5 1 1 2 -9 2 -23z m2410 -14 c-1 -3 -7 -17 -15 -31 -12
-22 -14 -23 -20 -7 -4 9 -2 23 4 31 6 7 8 16 4 20 -4 4 0 4 10 0 9 -3 17 -9
17 -13z m-2140 -42 c0 -5 -5 -30 -11 -54 -8 -31 -17 -45 -32 -49 -31 -8 -34
-8 -51 10 -17 16 -21 35 -8 33 20 -3 31 3 37 21 3 11 13 20 21 20 8 0 17 7 20
15 7 17 24 20 24 4z m-208 -144 c-1 -5 -12 -10 -25 -10 -15 0 -22 -6 -22 -20
0 -14 7 -20 22 -20 30 0 39 -12 14 -20 -48 -15 -83 23 -61 65 9 16 19 20 43
18 18 -2 31 -7 29 -13z m38 -20 c0 -28 4 -35 20 -35 11 0 20 -4 20 -10 0 -5
-13 -10 -30 -10 -29 0 -30 2 -30 45 0 25 5 45 10 45 6 0 10 -16 10 -35z m80
-1 c0 -45 24 -42 28 4 5 46 22 39 22 -8 0 -34 -4 -41 -25 -46 -15 -4 -32 -1
-40 6 -20 17 -20 80 0 80 11 0 15 -11 15 -36z m146 -4 c2 -39 -8 -50 -48 -50
-27 0 -28 2 -28 46 l0 45 37 -3 c35 -3 38 -5 39 -38z m84 30 c0 -5 -10 -11
-22 -11 l-23 -2 23 -4 c27 -5 29 -23 2 -23 -11 0 -20 -4 -20 -10 0 -5 9 -10
20 -10 11 0 20 -4 20 -10 0 -5 -16 -10 -35 -10 -35 0 -35 0 -35 45 0 45 0 45
35 45 19 0 35 -4 35 -10z m128 -2 c33 -33 2 -78 -52 -78 -24 0 -26 3 -26 45 0
44 1 45 33 45 18 0 38 -5 45 -12z m92 2 c0 -5 -10 -11 -22 -11 l-23 -2 23 -4
c27 -5 29 -23 2 -23 -11 0 -20 -4 -20 -10 0 -5 9 -10 20 -10 11 0 20 -4 20
-10 0 -5 -16 -10 -35 -10 -35 0 -35 0 -35 45 0 45 0 45 35 45 19 0 35 -4 35
-10z m128 -2 c33 -33 2 -78 -52 -78 -24 0 -26 3 -26 45 0 44 1 45 33 45 18 0
38 -5 45 -12z m92 2 c0 -5 -10 -11 -22 -11 l-23 -2 23 -4 c27 -5 29 -23 2 -23
-11 0 -20 -4 -20 -10 0 -5 9 -10 20 -10 11 0 20 -4 20 -10 0 -5 -16 -10 -35
-10 -35 0 -35 0 -35 45 0 45 0 45 35 45 19 0 35 -4 35 -10z m80 0 c0 -5 -10
-10 -22 -11 l-23 0 23 -11 c34 -17 26 -53 -12 -53 -16 0 -31 6 -34 13 -3 9 4
11 25 7 l28 -6 -27 16 c-27 15 -35 34 -21 48 10 11 63 8 63 -3z m86 -2 c13
-21 14 -62 1 -70 -7 -4 -27 -8 -44 -8 -32 0 -33 1 -33 45 0 45 0 45 34 45 19
0 38 -5 42 -12z m93 -2 c7 -8 9 -25 5 -40 -9 -38 3 -32 26 14 25 50 42 51 60
3 8 -21 16 -41 18 -45 2 -5 -3 -8 -12 -8 -9 0 -16 5 -16 10 0 6 -9 10 -20 10
-11 0 -20 -4 -20 -10 0 -14 -57 -13 -66 1 -4 8 -9 8 -17 0 -20 -20 -27 -11
-27 34 0 43 1 45 29 45 16 0 34 -6 40 -14z m142 -13 l11 -28 10 28 c5 15 16
27 23 27 11 0 11 -8 -3 -45 -20 -56 -39 -55 -63 3 -15 36 -16 42 -3 42 8 0 19
-12 25 -27z m133 -13 c20 -49 20 -50 1 -50 -8 0 -15 5 -15 10 0 6 -9 10 -20
10 -11 0 -20 -4 -20 -10 0 -5 -7 -10 -15 -10 -19 0 -19 3 5 50 11 22 27 40 34
40 8 0 21 -18 30 -40z m105 21 c18 -18 18 -18 30 0 22 37 81 18 81 -26 0 -44
-59 -63 -81 -26 -12 18 -12 18 -30 0 -11 -11 -32 -19 -49 -19 -29 0 -30 2 -30
45 0 43 1 45 30 45 17 0 38 -8 49 -19z m197 -28 c1 -30 -2 -43 -11 -43 -7 0
-16 6 -19 13 -5 10 -7 10 -12 0 -3 -7 -12 -13 -20 -13 -10 0 -14 13 -14 46 l0
45 38 -3 c36 -3 37 -4 38 -45z m164 36 c0 -5 -10 -9 -22 -9 -22 -1 -21 -2 5
-16 15 -8 27 -18 27 -23 0 -16 -29 -33 -52 -31 -44 4 -45 2 -38 -47 7 -43 29
-73 53 -73 5 0 6 -7 3 -16 -4 -12 -2 -15 9 -10 8 3 15 1 15 -4 0 -5 16 2 36
15 36 24 42 25 209 25 l173 0 16 -87 c25 -134 36 -122 -111 -125 l-128 -3 0
-120 0 -120 100 -8 c121 -10 142 -19 155 -66 12 -45 13 -442 0 -495 -5 -22
-20 -51 -35 -65 -25 -26 -27 -26 -200 -29 l-174 -3 -5 23 c-3 13 -10 52 -16
88 -6 36 -13 73 -16 82 -5 16 7 18 118 20 l123 3 3 119 c2 89 -1 121 -10 128
-7 4 -54 8 -105 8 -90 0 -92 1 -117 31 -26 30 -26 32 -26 204 0 172 0 173 -24
189 l-25 16 -3 -305 -3 -305 -28 -27 c-27 -27 -31 -28 -158 -31 -87 -3 -141 0
-160 9 -59 24 -59 22 -59 389 l0 337 26 24 c23 22 36 24 141 29 84 4 118 9
121 18 2 7 -5 16 -17 19 -12 3 -21 13 -21 24 0 14 7 19 28 19 38 0 62 29 69
79 5 33 3 41 -11 41 -12 0 -16 10 -16 45 l0 44 75 0 c41 0 75 -5 75 -10z
m-2245 -56 c10 -46 20 -58 54 -61 36 -4 38 -8 14 -34 -28 -31 -2 -38 150 -38
75 0 137 -1 137 -2 0 -2 7 -41 15 -88 23 -131 32 -120 -95 -120 l-110 0 0
-135 0 -135 85 0 85 0 0 -97 0 -98 -85 3 -85 3 0 -230 0 -231 -110 0 -110 0 0
511 c0 481 -1 510 -17 507 -15 -3 -18 -17 -21 -96 -1 -50 -5 -92 -8 -92 -16 0
-329 243 -391 303 -62 60 -73 75 -73 104 l0 33 126 0 127 0 66 -49 c146 -107
179 -121 150 -64 -7 16 -15 31 -17 36 -2 4 6 7 19 7 29 0 59 27 59 55 0 42 27
48 35 8z m3218 -50 c51 -233 51 -230 34 -273 -18 -46 -14 -53 7 -13 l14 27 12
-55 c7 -33 11 -97 8 -155 -3 -86 -8 -106 -32 -152 -39 -70 -146 -176 -274
-270 -57 -42 -124 -91 -147 -108 -23 -17 -54 -39 -68 -49 l-27 -17 0 139 0
138 142 105 c160 118 281 233 317 300 l24 45 -74 -72 c-74 -73 -173 -150 -326
-257 l-83 -58 0 59 c0 66 -21 114 -61 141 l-27 17 145 105 c208 150 314 240
367 310 25 34 46 67 46 73 0 6 -30 -18 -67 -54 -88 -85 -118 -109 -363 -283
-195 -139 -207 -146 -252 -146 l-48 0 0 85 0 85 130 0 c97 0 130 3 130 13 0 6
-7 50 -15 97 -8 47 -15 88 -15 92 0 3 59 49 131 102 l132 96 112 0 113 0 15
-67z m-3645 -193 c31 -27 118 -94 194 -148 l137 -97 0 -142 c1 -79 -1 -143 -4
-143 -10 0 -229 162 -307 227 -112 93 -173 164 -193 224 -18 53 -15 83 17 212
l9 38 45 -61 c25 -33 71 -82 102 -110z m1248 -13 c24 -28 24 -30 24 -244 0
-209 -1 -218 -22 -240 -12 -13 -27 -23 -34 -23 -9 0 0 -37 27 -117 21 -64 39
-121 39 -125 0 -5 -37 -8 -82 -6 l-82 3 -35 119 c-49 161 -61 162 -61 2 l0
-126 -80 0 -80 0 0 396 0 395 181 -3 181 -3 24 -28z m254 -292 l0 -325 40 0
40 0 0 325 0 325 80 0 80 0 0 -364 0 -365 -24 -28 -24 -28 -152 0 -152 0 -24
28 -24 28 0 365 0 364 80 0 80 0 0 -325z m637 253 l20 -73 -54 -3 -53 -3 0
-319 0 -320 -80 0 -80 0 0 320 0 320 -54 0 -53 0 21 75 21 75 146 0 147 0 19
-72z m-2282 -115 c60 -104 139 -179 335 -322 l135 -98 3 -147 3 -147 -118 87
c-169 125 -250 192 -318 266 -84 90 -108 142 -113 250 -5 90 4 198 16 198 4 0
30 -39 57 -87z m-126 -620 c1 -33 1 -33 54 -34 l52 0 -39 -18 -38 -17 166 -79
c91 -43 164 -80 162 -82 -4 -4 -406 143 -413 151 -2 2 7 45 19 96 22 91 23 92
30 54 4 -21 7 -54 7 -71z m4101 -74 c0 -8 -410 -162 -416 -156 -2 2 66 37 152
77 85 41 157 77 160 82 3 4 -10 14 -28 22 l-33 14 53 1 c52 1 52 1 52 34 0 17
3 50 7 72 6 39 7 39 30 -50 12 -49 23 -93 23 -96z m-1954 56 c-27 -21 -53 -20
-36 0 7 8 22 15 34 15 21 -1 21 -1 2 -15z m-966 -115 l0 -90 -45 0 -45 0 0 90
0 90 45 0 45 0 0 -90z m185 0 l0 -85 -45 0 -45 0 -3 65 c-5 101 0 112 51 108
l42 -3 0 -85z m275 70 c0 -13 -7 -20 -20 -20 -23 0 -27 -28 -5 -36 8 -4 15
-12 15 -20 0 -8 -7 -14 -15 -14 -8 0 -15 -9 -15 -20 0 -13 7 -20 20 -20 11 0
20 -7 20 -15 0 -10 -11 -15 -35 -15 l-35 0 0 90 0 90 35 0 c28 0 35 -4 35 -20z
m170 0 c0 -13 -7 -20 -20 -20 -13 0 -20 -7 -20 -20 0 -13 7 -20 20 -20 17 0
20 -7 20 -50 l0 -50 -35 0 c-24 0 -35 5 -35 15 0 8 9 15 20 15 29 0 27 38 -2
42 -19 2 -24 10 -26 42 -5 55 2 66 43 66 28 0 35 -4 35 -20z m188 -48 l3 -62
-31 -6 c-20 -5 -30 -12 -30 -25 0 -12 -7 -19 -20 -19 -19 0 -20 7 -20 91 l0
90 48 -3 47 -3 3 -63z m132 -22 c0 -83 -1 -90 -20 -90 -19 0 -20 7 -20 90 0
83 1 90 20 90 19 0 20 -7 20 -90z m175 -2 c0 -76 -2 -88 -17 -88 -9 0 -21 12
-26 28 l-10 27 -1 -27 c-1 -21 -6 -28 -21 -28 -19 0 -20 7 -20 91 l0 90 48 -3
47 -3 0 -87z m135 2 c0 -83 -1 -90 -20 -90 -19 0 -20 7 -20 90 0 83 1 90 20
90 19 0 20 -7 20 -90z m164 75 c3 -9 -1 -18 -9 -21 -11 -5 -15 -23 -15 -75 0
-55 -3 -69 -15 -69 -12 0 -15 14 -15 69 0 52 -4 70 -15 75 -26 10 -5 36 30 36
20 0 35 -6 39 -15z m181 -75 l0 -85 -45 0 -45 0 -3 65 c-5 101 0 112 51 108
l42 -3 0 -85z m-1285 -305 c0 -47 -1 -85 -2 -85 -2 0 -54 -5 -117 -10 l-114
-9 -96 66 c-53 37 -114 80 -135 95 l-39 28 251 0 252 0 0 -85z m1504 57 c-21
-15 -82 -58 -135 -95 l-96 -66 -114 9 c-63 5 -115 10 -116 10 -2 0 -3 38 -3
85 l0 85 252 0 251 0 -39 -28z m-564 -46 l0 -64 -207 -361 c-115 -198 -210
-360 -213 -360 -3 0 -54 86 -115 191 -60 105 -154 267 -207 359 -97 166 -98
170 -98 234 l0 65 420 0 420 0 0 -64z m-872 -209 c47 -81 49 -88 32 -97 -10
-6 -24 -10 -30 -10 -6 0 -70 40 -142 90 -112 76 -127 90 -107 95 43 9 184 21
191 16 3 -3 29 -45 56 -94z m1151 77 c20 -4 4 -18 -107 -94 -72 -50 -136 -90
-142 -90 -6 0 -20 5 -31 10 -17 10 -17 13 -5 33 7 12 32 54 54 93 l41 70 83
-8 c46 -5 94 -11 107 -14z m-1071 -216 c12 -18 19 -34 17 -36 -3 -3 -49 25
-75 45 -5 4 21 23 32 23 3 0 15 -15 26 -32z m787 22 c9 -14 -6 -30 -47 -54
-22 -13 -29 -15 -22 -5 5 8 18 26 27 42 18 28 32 34 42 17z"/>
<path d="M4460 11978 c0 -12 41 -329 45 -348 6 -25 7 -26 178 -43 95 -10 294
-31 442 -46 l270 -28 325 33 c179 19 380 39 447 46 l123 12 5 30 c5 29 45 334
45 342 0 2 -423 4 -940 4 -517 0 -940 -1 -940 -2z m749 -118 c12 -22 25 -40
29 -40 4 0 17 18 30 40 14 25 30 40 42 40 18 0 20 -7 20 -80 0 -73 -2 -80 -20
-80 -17 0 -20 7 -20 43 l0 42 -21 -32 c-26 -40 -41 -42 -60 -5 l-14 27 -3 -37
c-2 -30 -7 -38 -23 -38 -17 0 -19 7 -19 80 0 71 2 80 18 80 11 0 27 -16 41
-40z m271 20 c24 -24 25 -47 4 -71 -14 -16 -14 -20 1 -43 17 -26 17 -26 -8
-26 -16 0 -31 8 -37 20 -6 11 -17 20 -25 20 -8 0 -15 -9 -15 -20 0 -13 -7 -20
-20 -20 -18 0 -20 7 -20 80 l0 80 50 0 c37 0 55 -5 70 -20z m160 0 c42 -42 7
-100 -59 -100 -14 0 -21 -6 -21 -20 0 -13 -7 -20 -20 -20 -18 0 -20 7 -20 80
l0 80 50 0 c37 0 55 -5 70 -20z m-177 -167 c-7 -2 -19 -2 -25 0 -7 3 -2 5 12
5 14 0 19 -2 13 -5z m-375 -26 c2 -10 -3 -17 -12 -17 -9 0 -16 5 -16 11 0 5 5
7 10 4 6 -3 10 -2 10 4 0 5 -5 12 -10 14 -6 3 -5 4 2 3 7 -1 14 -10 16 -19z
m-45 -9 c8 -30 -10 -58 -36 -57 -21 0 -21 1 3 11 25 10 25 10 4 18 -43 17 -42
50 0 50 16 0 26 -7 29 -22z m155 -17 c-1 -36 -3 -38 -20 -28 -15 10 -21 9 -28
-3 -7 -11 -10 -3 -10 28 0 40 1 42 30 42 28 0 30 -2 28 -39z m60 32 c-34 -5
-37 -23 -5 -24 l22 0 -22 -9 c-31 -13 -29 -28 5 -33 25 -4 25 -4 -5 -6 -32 -1
-33 0 -33 39 0 39 1 40 33 39 30 -2 30 -2 5 -6z m102 -2 c0 -5 -8 -7 -18 -4
-26 6 -48 -22 -32 -42 17 -20 37 -19 43 3 4 13 5 11 6 -5 1 -18 -4 -23 -22
-23 -27 0 -47 17 -47 40 0 9 5 21 12 28 14 14 58 16 58 3z m40 -31 c0 -22 -4
-40 -10 -40 -5 0 -10 18 -10 40 0 22 5 40 10 40 6 0 10 -18 10 -40z m73 5 c22
-45 21 -48 -3 -33 -16 10 -24 10 -40 0 -11 -7 -20 -10 -20 -8 0 13 32 76 38
76 5 0 16 -16 25 -35z m95 23 c30 -30 0 -75 -42 -64 -29 7 -40 31 -26 57 12
21 50 25 68 7z m158 -3 c4 -8 1 -21 -5 -28 -8 -10 -7 -17 1 -25 16 -16 3 -15
-22 1 -17 10 -22 9 -30 -3 -7 -11 -10 -3 -10 28 0 40 1 42 30 42 18 0 33 -6
36 -15z m51 -7 l23 -21 0 21 c0 12 5 22 10 22 6 0 10 -18 10 -40 0 -47 -7 -49
-37 -12 l-22 27 -1 -28 c0 -16 -4 -26 -10 -22 -11 7 -14 75 -3 75 4 0 17 -10
30 -22z m-147 -18 c0 -5 -4 -10 -10 -10 -5 0 -10 5 -10 10 0 6 5 10 10 10 6 0
10 -4 10 -10z"/>
<path d="M5400 11839 c0 -15 5 -20 22 -17 34 5 37 38 4 38 -20 0 -26 -5 -26
-21z"/>
<path d="M5560 11839 c0 -15 5 -20 22 -17 34 5 37 38 4 38 -20 0 -26 -5 -26
-21z"/>
<path d="M5002 11679 c2 -6 8 -10 13 -10 5 0 11 4 13 10 2 6 -4 11 -13 11 -9
0 -15 -5 -13 -11z"/>
<path d="M5150 11675 c0 -8 9 -15 20 -15 11 0 20 7 20 15 0 8 -9 15 -20 15
-11 0 -20 -7 -20 -15z"/>
<path d="M5440 11666 c0 -9 5 -16 10 -16 6 0 10 4 10 9 0 6 -4 13 -10 16 -5 3
-10 -1 -10 -9z"/>
<path d="M5517 11683 c-13 -12 -7 -41 10 -47 21 -9 46 16 37 37 -6 17 -35 23
-47 10z"/>
<path d="M5670 11675 c0 -8 9 -15 20 -15 11 0 20 7 20 15 0 8 -9 15 -20 15
-11 0 -20 -7 -20 -15z"/>
<path d="M3351 11367 c-6 -16 -14 -47 -17 -70 l-5 -42 20 24 c27 30 36 67 23
94 -10 22 -10 22 -21 -6z"/>
<path d="M3356 11147 c-12 -17 -21 -52 -23 -85 l-4 -57 20 25 c23 28 34 73 29
116 l-3 29 -19 -28z"/>
<path d="M3250 11140 c0 -37 19 -100 30 -100 13 0 12 30 -1 71 -16 46 -29 59
-29 29z"/>
<path d="M3235 10908 c-5 -19 0 -42 16 -75 21 -41 24 -45 27 -24 5 33 -6 84
-22 107 -14 18 -15 18 -21 -8z"/>
<path d="M3356 10878 c-27 -55 -32 -83 -17 -93 17 -10 61 67 61 107 0 21 -4
38 -9 38 -5 0 -21 -23 -35 -52z"/>
<path d="M3364 10696 c-13 -42 -15 -66 -8 -106 5 -28 14 -52 19 -52 21 -3 55
65 55 109 0 44 -23 103 -40 103 -5 0 -17 -24 -26 -54z"/>
<path d="M3250 10652 c0 -35 21 -87 50 -122 l20 -25 0 40 c0 43 -36 126 -57
133 -9 2 -13 -7 -13 -26z"/>
<path d="M3422 10473 c-21 -49 -22 -175 -1 -223 l16 -35 23 45 c17 34 23 62
23 110 0 59 -22 140 -38 140 -3 0 -13 -17 -23 -37z"/>
<path d="M3265 10420 c13 -71 36 -128 69 -163 42 -46 57 -48 50 -4 -10 51 -40
108 -84 157 l-41 45 6 -35z"/>
<path d="M3505 10198 c-27 -67 -31 -140 -11 -193 10 -25 21 -45 26 -45 4 0 18
23 30 52 18 42 21 64 17 113 -5 59 -23 115 -38 115 -4 0 -14 -19 -24 -42z"/>
<path d="M3326 10123 c17 -78 72 -153 122 -168 22 -6 23 -5 17 17 -14 45 -38
82 -82 130 -52 55 -66 60 -57 21z"/>
<path d="M3404 9854 c15 -66 70 -155 131 -214 70 -67 99 -78 86 -32 -5 16 -16
42 -25 59 -16 32 -171 205 -189 212 -6 2 -7 -7 -3 -25z"/>
<path d="M7424 11365 c-7 -28 10 -77 32 -96 18 -15 19 4 3 67 -14 53 -26 64
-35 29z"/>
<path d="M7482 11280 c0 -14 2 -19 5 -12 2 6 2 18 0 25 -3 6 -5 1 -5 -13z"/>
<path d="M7422 11120 c2 -30 13 -68 24 -85 l19 -29 3 34 c4 43 -13 103 -34
121 -15 13 -16 9 -12 -41z"/>
<path d="M7527 11128 c-18 -40 -22 -88 -8 -88 12 0 34 83 28 106 -3 15 -8 11
-20 -18z"/>
<path d="M7397 10908 c-7 -24 23 -98 48 -118 41 -34 17 87 -24 124 -17 16 -19
15 -24 -6z"/>
<path d="M7537 10904 c-19 -38 -32 -114 -19 -114 12 0 52 79 52 101 0 8 -4 20
-9 28 -7 11 -12 7 -24 -15z"/>
<path d="M7386 10722 c-24 -46 -21 -112 7 -153 12 -19 27 -33 32 -32 6 1 14
25 19 53 9 53 -1 108 -27 145 -14 18 -15 17 -31 -13z"/>
<path d="M7511 10649 c-23 -37 -35 -84 -29 -119 3 -21 4 -21 25 8 31 42 51
118 36 133 -9 9 -17 3 -32 -22z"/>
<path d="M7333 10473 c-30 -72 -13 -223 28 -248 11 -7 39 90 39 135 0 43 -26
136 -40 145 -6 4 -18 -11 -27 -32z"/>
<path d="M7496 10409 c-42 -50 -72 -109 -82 -163 l-7 -38 26 16 c38 25 76 89
93 157 9 33 14 63 11 65 -3 3 -21 -14 -41 -37z"/>
<path d="M7246 10200 c-22 -56 -20 -131 5 -191 16 -37 25 -47 34 -39 20 16 38
96 32 140 -6 46 -36 130 -47 130 -4 0 -15 -18 -24 -40z"/>
<path d="M7416 10100 c-43 -46 -94 -135 -83 -146 19 -19 104 61 125 117 17 44
22 79 14 79 -5 0 -30 -23 -56 -50z"/>
<path d="M7303 9790 c-76 -83 -111 -133 -127 -187 -13 -40 22 -27 85 34 72 69
168 245 132 243 -5 -1 -45 -41 -90 -90z"/>
<path d="M4836 11402 c-44 -50 -49 -57 -17 -27 37 35 88 96 79 95 -2 -1 -30
-31 -62 -68z"/>
<path d="M4916 11443 c2 -7 0 -13 -4 -13 -4 0 -13 -9 -20 -20 -17 -28 -10 -25
24 12 16 17 24 28 17 24 -6 -3 -13 -3 -16 1 -2 5 -2 2 -1 -4z"/>
<path d="M4185 11439 c-4 -6 -4 -13 -1 -16 3 -4 6 0 6 7 0 8 24 -8 53 -35 l52
-50 -50 53 c-55 58 -51 56 -60 41z"/>
<path d="M4193 11383 c-7 -2 -13 -10 -13 -15 0 -6 3 -8 7 -5 3 4 17 0 30 -9
l24 -15 -16 25 c-10 14 -18 26 -19 25 0 0 -7 -3 -13 -6z"/>
<path d="M4904 11369 c-19 -22 -19 -22 3 -11 16 9 23 9 26 -1 3 -6 4 -2 4 11
-2 28 -9 28 -33 1z"/>
<path d="M4899 11314 c-20 -22 -21 -24 -4 -18 20 8 20 8 1 -21 -17 -27 -17
-28 -1 -13 10 9 19 25 20 35 0 10 4 24 9 31 12 20 1 14 -25 -14z"/>
<path d="M4208 11318 c7 -9 9 -18 5 -20 -4 -3 -3 -3 4 -2 6 2 13 -2 15 -8 2
-6 9 -9 14 -7 6 2 -3 15 -20 29 -17 13 -25 17 -18 8z"/>
<path d="M4739 11313 c-13 -16 -12 -17 4 -4 9 7 17 15 17 17 0 8 -8 3 -21 -13z"/>
<path d="M3798 11303 c6 -2 18 -2 25 0 6 3 1 5 -13 5 -14 0 -19 -2 -12 -5z"/>
<path d="M4699 11283 c-13 -16 -12 -17 4 -4 9 7 17 15 17 17 0 8 -8 3 -21 -13z"/>
<path d="M4719 11273 c-13 -16 -12 -17 4 -4 16 13 21 21 13 21 -2 0 -10 -8
-17 -17z"/>
<path d="M4213 11264 c9 -11 17 -25 17 -31 0 -6 8 -17 18 -24 15 -13 16 -12 4
3 -7 9 -9 18 -4 20 5 1 -5 14 -22 28 -23 18 -27 19 -13 4z"/>
<path d="M4370 11276 c0 -3 9 -10 20 -16 11 -6 20 -8 20 -6 0 3 -9 10 -20 16
-11 6 -20 8 -20 6z"/>
<path d="M4430 11230 c6 -11 13 -20 16 -20 2 0 0 9 -6 20 -6 11 -13 20 -16 20
-2 0 0 -9 6 -20z"/>
<path d="M4845 11234 c-10 -8 -14 -14 -8 -14 7 0 15 5 18 10 5 8 11 7 21 -1 8
-7 14 -7 14 -1 0 17 -25 20 -45 6z"/>
<path d="M4660 11210 c-6 -11 -8 -20 -6 -20 3 0 10 9 16 20 6 11 8 20 6 20 -3
0 -10 -9 -16 -20z"/>
<path d="M4556 11207 c3 -10 9 -15 12 -12 3 3 0 11 -7 18 -10 9 -11 8 -5 -6z"/>
<path d="M4610 11201 c-6 -12 -15 -19 -21 -16 -5 4 -9 2 -9 -4 0 -5 4 -12 9
-15 10 -6 46 43 38 51 -3 2 -10 -5 -17 -16z"/>
<path d="M4450 11196 c0 -2 8 -10 18 -17 15 -13 16 -12 3 4 -13 16 -21 21 -21
13z"/>
<path d="M4495 11180 c10 -11 20 -20 23 -20 3 0 -3 9 -13 20 -10 11 -20 20
-23 20 -3 0 3 -9 13 -20z"/>
<path d="M4283 11183 c-19 -7 -16 -21 10 -35 12 -7 22 -19 22 -27 0 -8 9 -19
20 -25 11 -6 24 -17 28 -23 4 -7 13 -13 20 -13 7 0 6 4 -3 10 -13 9 -13 11 0
20 11 7 8 10 -17 10 -36 0 -53 17 -28 26 13 5 7 11 -22 25 -31 14 -34 18 -15
18 13 1 20 6 17 11 -7 11 -13 11 -32 3z"/>
<path d="M4655 11164 c-9 -15 -12 -23 -6 -20 11 7 35 46 28 46 -3 0 -12 -12
-22 -26z"/>
<path d="M4836 11165 c-11 -8 -15 -15 -9 -15 6 0 16 7 23 15 16 19 11 19 -14
0z"/>
<path d="M4495 11140 c10 -11 20 -20 23 -20 3 0 -3 9 -13 20 -10 11 -20 20
-23 20 -3 0 3 -9 13 -20z"/>
<path d="M4790 11145 c0 -2 10 -10 23 -16 20 -11 21 -11 8 4 -13 16 -31 23
-31 12z"/>
<path d="M4780 11105 c11 -13 7 -15 -25 -15 -34 0 -36 -2 -24 -17 13 -15 11
-16 -13 -11 -15 3 -25 1 -22 -3 3 -5 -6 -9 -19 -9 -16 0 -28 -8 -35 -24 -17
-38 -60 -62 -83 -48 -12 8 -20 8 -24 2 -4 -6 -10 -8 -15 -5 -13 8 1 -33 16
-46 16 -13 34 -4 35 19 0 12 3 11 9 -5 11 -28 40 -20 40 10 0 19 4 17 38 -14
l37 -34 -35 38 c-33 37 -34 38 -18 64 11 19 30 30 60 38 23 5 41 15 39 20 -3
6 8 12 25 15 16 3 27 9 26 14 -2 5 2 13 10 17 9 6 6 9 -11 9 -20 0 -21 -2 -11
-15z"/>
<path d="M4661 11084 c0 -11 3 -14 6 -6 3 7 2 16 -1 19 -3 4 -6 -2 -5 -13z"/>
<path d="M4420 11060 c0 -5 0 -13 0 -17 0 -11 52 -12 70 -1 12 8 12 8 -2 4
-10 -3 -18 -1 -18 5 0 6 -7 6 -19 -1 -28 -14 -36 -12 -21 5 9 10 9 15 1 15 -6
0 -11 -4 -11 -10z"/>
<path d="M4430 10965 c-14 -8 -20 -14 -14 -15 5 0 19 7 30 15 24 18 16 19 -16
0z"/>
<path d="M4445 10900 c-3 -5 -16 -10 -28 -11 -21 0 -21 -1 -2 -9 11 -5 16 -9
11 -9 -5 -1 -3 -8 4 -16 7 -9 18 -14 24 -12 6 2 16 -3 23 -12 9 -12 14 -13 24
-4 9 9 16 9 31 0 16 -10 22 -9 33 7 13 17 17 17 31 5 15 -12 15 -10 -1 15
l-19 29 -9 -27 c-10 -29 -37 -36 -37 -9 0 15 -1 15 -18 0 -26 -24 -35 -21 -29
8 4 24 3 25 -14 9 -26 -24 -44 -8 -24 22 8 13 13 24 11 24 -3 0 -8 -4 -11 -10z"/>
<path d="M4658 10893 c6 -2 18 -2 25 0 6 3 1 5 -13 5 -14 0 -19 -2 -12 -5z"/>
<path d="M4620 10869 c0 -11 4 -18 10 -14 5 3 7 12 3 20 -7 21 -13 19 -13 -6z"/>
<path d="M3698 10353 c7 -3 16 -2 19 1 4 3 -2 6 -13 5 -11 0 -14 -3 -6 -6z"/>
<path d="M3758 10333 c7 -3 16 -2 19 1 4 3 -2 6 -13 5 -11 0 -14 -3 -6 -6z"/>
<path d="M3728 10243 c7 -3 16 -2 19 1 4 3 -2 6 -13 5 -11 0 -14 -3 -6 -6z"/>
<path d="M6218 11133 c7 -3 16 -2 19 1 4 3 -2 6 -13 5 -11 0 -14 -3 -6 -6z"/>
<path d="M6338 11063 c7 -3 16 -2 19 1 4 3 -2 6 -13 5 -11 0 -14 -3 -6 -6z"/>
<path d="M6258 9913 c7 -3 16 -2 19 1 4 3 -2 6 -13 5 -11 0 -14 -3 -6 -6z"/>
<path d="M5314 11378 l-19 -23 23 19 c21 18 27 26 19 26 -2 0 -12 -10 -23 -22z"/>
<path d="M5247 11283 c18 -2 50 -2 70 0 21 2 7 4 -32 4 -38 0 -55 -2 -38 -4z"/>
<path d="M5188 11273 c7 -3 16 -2 19 1 4 3 -2 6 -13 5 -11 0 -14 -3 -6 -6z"/>
<path d="M5368 11273 c7 -3 16 -2 19 1 4 3 -2 6 -13 5 -11 0 -14 -3 -6 -6z"/>
<path d="M5216 11151 c-25 -17 -54 -51 -44 -51 2 0 22 9 43 20 27 14 49 18 69
14 24 -5 28 -4 23 11 -4 9 -7 19 -7 21 0 12 -59 1 -84 -15z"/>
<path d="M5212 11084 c-23 -16 -29 -34 -12 -34 6 0 9 5 8 11 -2 6 2 13 9 16 7
3 10 -3 6 -15 -8 -31 18 -39 39 -12 14 17 16 26 7 36 -15 18 -29 18 -57 -2z"/>
<path d="M5410 11079 c0 -5 -4 -8 -9 -5 -5 3 -12 -1 -15 -10 -11 -28 -6 -38 7
-19 13 17 14 16 13 -6 -1 -15 5 -24 14 -24 9 0 15 9 14 24 l-1 24 20 -24 20
-24 -8 25 c-12 39 -55 70 -55 39z"/>
<path d="M5355 11005 c6 -70 7 -75 17 -69 5 3 5 11 1 17 -4 7 -11 32 -15 57
l-7 45 4 -50z"/>
<path d="M4206 10558 c-24 -33 -19 -45 5 -14 11 14 27 26 36 26 12 0 13 -3 4
-14 -15 -18 -3 -46 20 -46 19 0 25 23 13 54 -9 24 -60 20 -78 -6z"/>
<path d="M4409 10488 c21 -24 22 -30 11 -45 -13 -17 -13 -17 5 0 19 17 19 18
-10 45 l-29 27 23 -27z"/>
<path d="M4030 10453 c0 -14 2 -15 9 -4 13 20 31 4 32 -27 1 -17 3 -21 6 -9 2
9 9 14 15 11 5 -4 2 5 -7 20 -20 30 -55 35 -55 9z"/>
<path d="M4355 10440 c-3 -5 3 -10 15 -10 12 0 18 5 15 10 -3 6 -10 10 -15 10
-5 0 -12 -4 -15 -10z"/>
<path d="M4385 10398 c-38 -5 -82 -7 -97 -5 -37 5 -35 -5 7 -42 25 -22 46 -31
70 -31 29 0 38 6 64 45 17 25 29 44 28 44 -1 -1 -33 -6 -72 -11z m25 -28 c-18
-12 -71 -13 -97 -2 -12 4 2 9 42 12 66 6 77 4 55 -10z"/>
<path d="M4982 10230 c0 -19 2 -27 5 -17 2 9 2 25 0 35 -3 9 -5 1 -5 -18z"/>
<path d="M4745 9950 c10 -11 20 -20 23 -20 3 0 -3 9 -13 20 -10 11 -20 20 -23
20 -3 0 3 -9 13 -20z"/>
<path d="M5475 9909 c-4 -6 -5 -12 -2 -15 2 -3 7 2 10 11 7 17 1 20 -8 4z"/>
<path d="M4811 9804 c0 -11 3 -14 6 -6 3 7 2 16 -1 19 -3 4 -6 -2 -5 -13z"/>
<path d="M5450 10470 c0 -6 5 -10 10 -10 6 0 10 -9 10 -21 0 -14 -5 -19 -17
-17 -12 3 -17 12 -16 28 2 22 2 23 -8 7 -15 -26 -3 -49 23 -45 28 4 38 52 14
61 -9 4 -16 2 -16 -3z"/>
<path d="M4138 9933 c12 -2 32 -2 45 0 12 2 2 4 -23 4 -25 0 -35 -2 -22 -4z"/>
<path d="M4440 9936 c0 -2 7 -6 15 -10 8 -3 15 -1 15 4 0 6 -7 10 -15 10 -8 0
-15 -2 -15 -4z"/>
<path d="M4085 9919 c-4 -6 -5 -12 -2 -15 2 -3 7 2 10 11 7 17 1 20 -8 4z"/>
<path d="M4332 9885 c0 -16 2 -22 5 -12 2 9 2 23 0 30 -3 6 -5 -1 -5 -18z"/>
<path d="M4073 9830 c0 -36 2 -50 4 -32 2 17 2 47 0 65 -2 17 -4 3 -4 -33z"/>
<path d="M4157 9849 c7 -7 15 -10 18 -7 3 3 -2 9 -12 12 -14 6 -15 5 -6 -5z"/>
<path d="M4080 9751 c0 -6 4 -13 10 -16 6 -3 7 1 4 9 -7 18 -14 21 -14 7z"/>
<path d="M4216 9743 c-4 -4 -28 -10 -54 -14 l-47 -6 52 -2 c28 0 55 4 58 10 8
12 1 22 -9 12z"/>
<path d="M6802 9810 c0 -14 2 -19 5 -12 2 6 2 18 0 25 -3 6 -5 1 -5 -13z"/>
<path d="M6675 9730 c3 -5 8 -10 11 -10 2 0 4 5 4 10 0 6 -5 10 -11 10 -5 0
-7 -4 -4 -10z"/>
<path d="M6673 9703 c9 -2 23 -2 30 0 6 3 -1 5 -18 5 -16 0 -22 -2 -12 -5z"/>
<path d="M6752 9645 c0 -16 2 -22 5 -12 2 9 2 23 0 30 -3 6 -5 -1 -5 -18z"/>
<path d="M6695 9590 l-50 -7 47 -1 c26 -1 50 3 53 8 3 6 5 9 3 8 -2 0 -25 -4
-53 -8z"/>
<path d="M4598 9643 c7 -3 16 -2 19 1 4 3 -2 6 -13 5 -11 0 -14 -3 -6 -6z"/>
<path d="M4612 9590 c0 -19 2 -27 5 -17 2 9 2 25 0 35 -3 9 -5 1 -5 -18z"/>
<path d="M5220 9776 c0 -2 7 -7 16 -10 8 -3 12 -2 9 4 -6 10 -25 14 -25 6z"/>
<path d="M5169 9743 c-13 -16 -12 -17 4 -4 9 7 17 15 17 17 0 8 -8 3 -21 -13z"/>
<path d="M4748 9353 c7 -3 16 -2 19 1 4 3 -2 6 -13 5 -11 0 -14 -3 -6 -6z"/>
<path d="M4745 9320 c-3 -5 1 -10 9 -10 9 0 16 5 16 10 0 6 -4 10 -9 10 -6 0
-13 -4 -16 -10z"/>
<path d="M4960 9335 c0 -17 5 -25 13 -22 6 2 12 12 12 22 0 10 -6 20 -12 23
-8 2 -13 -6 -13 -23z"/>
<path d="M5180 9335 c0 -17 5 -25 13 -22 6 2 12 12 12 22 0 10 -6 20 -12 23
-8 2 -13 -6 -13 -23z"/>
<path d="M5448 9353 c7 -3 16 -2 19 1 4 3 -2 6 -13 5 -11 0 -14 -3 -6 -6z"/>
<path d="M5440 9320 c0 -5 7 -10 15 -10 8 0 15 5 15 10 0 6 -7 10 -15 10 -8 0
-15 -4 -15 -10z"/>
<path d="M5535 9350 c3 -5 10 -10 16 -10 5 0 9 5 9 10 0 6 -7 10 -16 10 -8 0
-12 -4 -9 -10z"/>
<path d="M5910 9336 c0 -19 4 -24 15 -19 18 6 16 34 -2 41 -8 2 -13 -6 -13
-22z"/>
<path d="M6003 9344 c-7 -20 17 -37 34 -23 15 13 6 39 -13 39 -8 0 -17 -7 -21
-16z"/>
<path d="M6110 9350 c0 -5 7 -10 16 -10 8 0 12 5 9 10 -3 6 -10 10 -16 10 -5
0 -9 -4 -9 -10z"/>
<path d="M6218 9353 c12 -2 22 -12 22 -21 0 -12 10 -18 33 -19 l32 -2 -27 15
c-16 8 -28 19 -28 24 0 6 -12 9 -27 9 -24 -2 -25 -2 -5 -6z"/>
<path d="M6010 8695 l0 -255 39 0 c26 0 41 5 45 16 8 21 8 321 0 417 l-7 77
-38 0 -39 0 0 -255z"/>
<path d="M4008 9213 c7 -3 16 -2 19 1 4 3 -2 6 -13 5 -11 0 -14 -3 -6 -6z"/>
<path d="M4088 9213 c7 -3 16 -2 19 1 4 3 -2 6 -13 5 -11 0 -14 -3 -6 -6z"/>
<path d="M4672 8818 l3 -133 43 -3 42 -3 0 135 0 136 -45 0 -46 0 3 -132z"/>
<path d="M4510 8151 c0 -34 4 -61 10 -61 6 0 10 24 10 54 0 30 -4 58 -10 61
-6 4 -10 -17 -10 -54z"/>
<path d="M4690 8150 c0 -33 4 -60 10 -60 6 0 10 27 10 60 0 33 -4 60 -10 60
-6 0 -10 -27 -10 -60z"/>
<path d="M5320 8175 c0 -19 5 -35 10 -35 6 0 10 16 10 35 0 19 -4 35 -10 35
-5 0 -10 -16 -10 -35z"/>
<path d="M5630 8175 c0 -19 5 -35 10 -35 6 0 10 16 10 35 0 19 -4 35 -10 35
-5 0 -10 -16 -10 -35z"/>
<path d="M6110 8150 c0 -33 4 -60 10 -60 6 0 10 27 10 60 0 33 -4 60 -10 60
-6 0 -10 -27 -10 -60z"/>
<path d="M5010 7850 l0 -40 390 0 390 0 0 40 0 40 -390 0 -390 0 0 -40z m111
20 c-11 -6 -11 -9 0 -14 12 -5 12 -7 0 -12 -11 -5 -11 -8 0 -14 7 -5 -11 -9
-44 -9 -56 0 -57 1 -57 29 0 28 1 29 57 29 33 0 51 -4 44 -9z m184 -12 c0 -28
12 -30 19 -3 7 26 36 35 36 11 0 -8 2 -21 5 -28 4 -10 -5 -14 -35 -15 -22 -1
-40 2 -40 8 0 5 -5 9 -11 9 -5 0 -8 -4 -5 -9 3 -5 -25 -9 -63 -9 -68 0 -68 0
-69 28 l-1 28 82 -1 c69 -2 82 -5 82 -19z m85 10 c0 -9 3 -9 12 0 20 20 27 14
19 -15 -8 -30 -41 -45 -41 -20 0 9 -3 22 -6 31 -3 9 -1 16 5 16 6 0 11 -5 11
-12z m84 -10 c9 -34 8 -35 -19 -35 -14 0 -25 2 -25 6 1 23 14 51 25 51 7 0 15
-10 19 -22z m66 -8 c0 -25 -4 -30 -25 -30 -21 0 -25 5 -25 30 0 25 4 30 25 30
21 0 25 -5 25 -30z m60 0 c0 -25 -4 -30 -25 -30 -20 0 -25 5 -25 23 0 28 7 37
32 37 13 0 18 -8 18 -30z m60 0 c0 -28 -19 -44 -21 -17 0 10 -2 10 -6 0 -9
-24 -23 -13 -23 17 0 25 4 30 25 30 21 0 25 -5 25 -30z m45 20 c-17 -7 -17 -9
-2 -9 9 -1 17 -5 17 -10 0 -5 -8 -11 -17 -14 -10 -2 -1 -4 20 -3 26 0 33 3 22
8 -22 13 -19 38 5 38 11 0 20 -5 20 -11 0 -5 -6 -7 -12 -3 -10 6 -10 4 0 -7
24 -26 13 -37 -38 -37 -49 -1 -50 0 -50 29 0 25 4 29 28 28 24 0 25 -1 7 -9z"/>
<path d="M5042 7850 c0 -14 2 -19 5 -12 2 6 2 18 0 25 -3 6 -5 1 -5 -13z"/>
<path d="M5160 7866 c0 -2 7 -9 15 -16 9 -7 15 -8 15 -2 0 5 -7 12 -15 16 -8
3 -15 4 -15 2z"/>
<path d="M5512 7850 c0 -14 2 -19 5 -12 2 6 2 18 0 25 -3 6 -5 1 -5 -13z"/>
<path d="M5572 7850 c0 -14 2 -19 5 -12 2 6 2 18 0 25 -3 6 -5 1 -5 -13z"/>
<path d="M5201 7458 c104 -178 193 -324 198 -326 7 -2 381 627 381 642 0 3
-173 6 -384 6 l-384 0 189 -322z m20 273 c35 -6 73 -4 116 5 53 11 74 11 130
-1 57 -12 78 -12 131 -1 l62 13 0 -29 c0 -15 -4 -28 -9 -28 -5 0 -7 -9 -4 -19
9 -33 -26 -117 -67 -164 -22 -25 -71 -66 -109 -92 -67 -45 -69 -46 -97 -32
-16 9 -39 25 -51 36 -12 12 -26 21 -31 21 -13 0 -56 49 -49 56 7 8 67 -34 67
-47 0 -5 5 -9 11 -9 6 0 24 -10 41 -21 36 -26 56 -19 133 44 86 70 112 112
130 208 l7 35 -94 3 c-117 2 -159 2 -276 0 l-94 -3 6 -40 c4 -23 17 -62 30
-88 13 -27 19 -48 14 -48 -4 0 -8 5 -8 10 0 6 -6 10 -14 10 -19 0 -41 60 -60
168 -5 30 -4 33 14 27 10 -3 43 -10 71 -14z m340 -44 c32 4 49 2 49 -5 0 -13
-306 -116 -320 -107 -5 3 -10 17 -10 31 0 13 -6 24 -12 23 -19 -1 -55 -17 -40
-18 18 -1 36 -51 23 -64 -12 -12 -46 58 -58 114 l-6 32 49 -6 c28 -4 73 -1
104 6 43 10 67 10 114 0 32 -6 81 -9 107 -6z m18 -97 c-23 -54 -99 -131 -156
-158 -29 -14 -34 -14 -58 2 -15 10 -24 20 -21 23 2 3 -4 14 -15 26 -10 11 -19
26 -19 31 1 13 284 146 288 135 2 -4 -7 -31 -19 -59z m-219 -272 c0 -10 5 -18
10 -18 6 0 10 9 10 19 0 15 7 19 35 19 30 0 35 -3 35 -23 0 -22 -4 -23 -65
-23 -66 1 -81 8 -71 33 7 20 46 14 46 -7z m121 15 c-11 -5 -11 -7 0 -14 12 -7
11 -9 -1 -9 -13 0 -13 -1 0 -10 13 -8 12 -10 -2 -10 -13 0 -18 8 -18 25 0 17
5 25 18 24 12 0 13 -2 3 -6z"/>
</g>
</svg>
